<svg width="819" height="324" viewBox="0 0 819 324" fill="none" xmlns="http://www.w3.org/2000/svg">
<rect x="17" y="22" width="8" height="259" fill="#AAAAAA"/>
<rect x="794" y="21" width="8" height="259" fill="#AAAAAA"/>
<rect x="17" y="281" width="9" height="239" transform="rotate(-90 17 281)" fill="#AAAAAA"/>
<rect x="563" y="280" width="9" height="239" transform="rotate(-90 563 280)" fill="#AAAAAA"/>
<rect x="17" y="30" width="9" height="785" transform="rotate(-90 17 30)" fill="#AAAAAA"/>
<path d="M154.875 104.938C163 104.979 170.375 106.875 177 110.625C178.542 111.458 179.646 112.167 180.312 112.75L181.312 113.688V127.938H178.25C178.042 126.188 177.146 123.938 175.562 121.188C170.938 113.188 163.958 109.167 154.625 109.125C146.958 109.125 140.479 112.25 135.188 118.5C129.604 125.083 126.812 132.875 126.812 141.875C126.812 148.5 128.25 154.812 131.125 160.812C136.417 171.938 144.917 177.521 156.625 177.562C166.875 177.562 173.542 173.854 176.625 166.438C177.458 164.396 178 162.167 178.25 159.75H181.312V173.875C173.229 179.333 164.229 182.062 154.312 182.062C142.438 182.062 133.208 177.75 126.625 169.125C121.042 161.792 118.25 153.229 118.25 143.438C118.25 131.479 121.75 122.083 128.75 115.25C135.792 108.375 144.5 104.938 154.875 104.938ZM236.25 174.688C236.167 174.896 235.854 175.396 235.312 176.188C234.812 176.979 234.146 177.812 233.312 178.688C232.521 179.562 231.604 180.333 230.562 181C229.521 181.708 228.438 182.062 227.312 182.062C225.688 182.062 224.375 181.688 223.375 180.938C222.375 180.188 221.583 179.25 221 178.125C220.417 177 220 175.812 219.75 174.562C219.5 173.271 219.333 172.125 219.25 171.125C218.958 171.375 218.417 172.083 217.625 173.25C216.833 174.417 215.771 175.667 214.438 177C213.104 178.292 211.458 179.458 209.5 180.5C207.583 181.542 205.354 182.062 202.812 182.062C201.562 182.062 200.25 181.896 198.875 181.562C197.542 181.229 196.333 180.667 195.25 179.875C194.167 179.042 193.271 177.938 192.562 176.562C191.854 175.146 191.5 173.396 191.5 171.312C191.5 168.354 192.479 165.896 194.438 163.938C196.396 161.979 198.833 160.438 201.75 159.312C204.667 158.188 207.333 157.375 209.75 156.875C212.208 156.333 215.125 155.729 218.5 155.062V144.625C218.5 143.708 218.458 142.562 218.375 141.188C218.333 139.771 218.083 138.417 217.625 137.125C217.208 135.792 216.5 134.667 215.5 133.75C214.542 132.792 213.146 132.312 211.312 132.312C209.062 132.312 207.208 132.75 205.75 133.625C204.333 134.5 203.292 135.292 202.625 136C201.958 136.708 201.042 137.75 199.875 139.125C198.458 139.292 197.333 139.271 196.5 139.062C195.708 138.812 195.042 138.458 194.5 138C194 137.5 193.75 136.833 193.75 136C193.75 134.792 194.667 133.646 196.5 132.562C198.333 131.479 200.708 130.521 203.625 129.688C206.583 128.812 209.375 128.375 212 128.375C214.375 128.375 216.375 128.729 218 129.438C219.625 130.104 220.958 131.042 222 132.25C223.042 133.417 223.833 134.792 224.375 136.375C224.917 137.917 225.292 139.562 225.5 141.312C225.75 143.062 225.875 144.854 225.875 146.688C225.917 148.521 225.938 150.292 225.938 152C225.938 155.167 225.896 158.25 225.812 161.25C225.729 164.25 225.75 166.938 225.875 169.312C226 171.646 226.312 173.542 226.812 175C227.354 176.417 228.229 177.125 229.438 177.125C230.979 177.125 232.542 175.708 234.125 172.875L236.25 174.688ZM218.5 159.188C215.125 159.688 212.229 160.25 209.812 160.875C207.438 161.5 205.542 162.292 204.125 163.25C202.75 164.208 201.688 165.292 200.938 166.5C200.229 167.667 199.875 169.104 199.875 170.812C199.875 174.979 201.708 177.062 205.375 177.062C206.708 177.062 208.083 176.583 209.5 175.625C210.917 174.667 212.229 173.521 213.438 172.188C214.646 170.812 215.708 169.396 216.625 167.938C217.542 166.479 218.167 165.271 218.5 164.312V159.188ZM242.25 134.438V131.375L249.875 129.75V118.25C249.958 102 256.167 93.8542 268.5 93.8125C271.917 93.8125 275.042 94.3542 277.875 95.4375C280.625 96.6042 282 98.1875 282 100.188C282.042 102.146 281.312 103.417 279.812 104C279.312 104.167 278.812 104.271 278.312 104.312C276.479 104.271 274.646 103.083 272.812 100.75C270.979 98.375 269.146 97.1875 267.312 97.1875C264.021 97.1875 261.521 98.3125 259.812 100.562C258.146 102.771 257.312 106.396 257.312 111.438V129.75H270.562V134.438H257.312V165.625C257.312 169.5 257.646 172.167 258.312 173.625C259.104 175.333 261.792 176.688 266.375 177.688V180H242.312V177.688C242.562 177.604 243.417 177.375 244.875 177C248.167 176.167 249.833 173.729 249.875 169.688V134.438H242.25ZM297.188 128.375C305.188 128.375 310.208 131.5 312.25 137.75C313.167 140.583 313.417 143.354 313 146.062H283.062C282.521 149.062 282.25 151.854 282.25 154.438C282.25 163.229 284.875 169.229 290.125 172.438C292.917 174.146 296.271 175 300.188 175C304.271 175 308.375 173.5 312.5 170.5L314.312 172.375L312.562 174.438C307.812 179.396 302.188 181.896 295.688 181.938C291.812 181.938 288.229 180.771 284.938 178.438C278.312 173.729 275 166.604 275 157.062C275 146.979 277.812 139.333 283.438 134.125C287.688 130.417 292.271 128.5 297.188 128.375ZM283.688 142H304.938C304.938 138.708 304.188 136.271 302.688 134.688C301.188 133.062 299.271 132.25 296.938 132.25C293.312 132.25 290.354 133.333 288.062 135.5C285.771 137.625 284.312 139.792 283.688 142ZM285.75 119.688C289.875 117.854 292.833 115.375 294.625 112.25C296.458 109.083 297.458 105.958 297.625 102.875C300.083 102.875 301.75 103.375 302.625 104.375C303.542 105.333 304 106.479 304 107.812C304 110.146 302.521 112.604 299.562 115.188C296.604 117.729 292 119.667 285.75 121V119.688ZM415.938 136.812C415.938 137.354 414.646 140.5 412.062 146.25C409.521 151.958 406.125 157.646 401.875 163.312L408.125 169.812C412.542 174.479 415.167 177.083 416 177.625C416.833 178.125 417.396 178.417 417.688 178.5L421.938 179.375V182.062H397.625V179.5L401.25 178.75C404.292 178.333 402.958 175.062 397.25 168.938C389.167 177.562 380.625 181.896 371.625 181.938C366.833 181.938 362.417 180.5 358.375 177.625C352.958 173.583 350.208 168.188 350.125 161.438C350.125 153.812 355.188 147.5 365.312 142.5C365.854 142.25 366.188 142.083 366.312 142C361.562 137.917 358.312 134.5 356.562 131.75C354.854 128.958 354 125.812 354 122.312C354 116.271 356.375 111.417 361.125 107.75C364.833 104.917 368.875 103.5 373.25 103.5C380.333 103.5 385.812 105.396 389.688 109.188C392.938 112.438 394.562 116.854 394.562 122.438C394.562 127.979 391.438 132.771 385.188 136.812C382.812 138.354 380.458 139.479 378.125 140.188L393.688 155.5L398 159.562C402.833 152.979 406.875 145.917 410.125 138.375L410.75 136.812L405.938 135.688V132.75L422.562 132.312V135.25L415.938 136.812ZM370 145.188C366.375 148.396 363.625 151.396 361.75 154.188C359.917 156.979 359 160.083 359 163.5C359 166.875 360.271 169.958 362.812 172.75C365.396 175.5 368.646 176.896 372.562 176.938C379.521 176.896 386.5 172.938 393.5 165.062C387.292 158.979 380.354 153.021 372.688 147.188C371.521 146.271 370.625 145.604 370 145.188ZM362.562 120.125C362.562 125.708 366.542 131.229 374.5 136.688C378.083 134.396 380.812 131.792 382.688 128.875C384.604 125.917 385.562 123.167 385.562 120.625C385.562 115.667 383.729 112.125 380.062 110C378.104 108.917 375.667 108.375 372.75 108.375C369.875 108.375 367.458 109.542 365.5 111.875C363.542 114.167 362.562 116.917 362.562 120.125ZM453.625 110.125C453.625 107.167 455.729 105.667 459.938 105.625H500.812C506.438 105.625 511.25 107.146 515.25 110.188C519.25 113.229 521.229 117.896 521.188 124.188C521.104 137.646 514.042 144.375 500 144.375C494.042 144.208 490.979 142.708 490.812 139.875C490.938 136.708 492.708 135.104 496.125 135.062C497.917 135.062 499.312 135.771 500.312 137.188C501.312 138.604 501.958 139.438 502.25 139.688C502.875 140.146 503.625 140.375 504.5 140.375C509.583 140.375 512.125 135.312 512.125 125.188C512.125 119.646 510.208 115.375 506.375 112.375C503.958 110.5 501.354 109.562 498.562 109.562H486.562V170.562C486.562 173.271 486.792 174.896 487.25 175.438C487.708 175.938 488.604 176.312 489.938 176.562L494.188 177.438V180H469.875V177.562L473.5 176.812C475.708 176.354 477.021 175.5 477.438 174.25C477.896 173 478.125 170.604 478.125 167.062V120.312C477.875 114.604 476.562 111.104 474.188 109.812C473.354 109.396 472.354 109.188 471.188 109.188C470.062 109.188 468.479 110 466.438 111.625C463.688 113.833 461.271 114.958 459.188 115C457.146 115 455.708 114.458 454.875 113.375C454.042 112.25 453.625 111.167 453.625 110.125ZM557.188 137.938L550.375 137.125C546.958 137.167 544.167 138.896 542 142.312C541.25 143.562 540.875 145.458 540.875 148V170.25C540.875 173.333 542.229 175.396 544.938 176.438C544.979 176.479 545.729 176.708 547.188 177.125C548.646 177.5 549.438 177.708 549.562 177.75V180H525.875V177.75C526 177.667 526.417 177.542 527.125 177.375C530.125 176.667 532.042 175.562 532.875 174.062C533.292 173.229 533.521 172.312 533.562 171.312V140.562C533.562 138.562 532.5 137.354 530.375 136.938C529.75 136.812 528.396 136.708 526.312 136.625L526 134.438L541.375 128.562L541.5 138.438L543.688 136.125C548.396 131.75 553 129.562 557.5 129.562C560.167 129.562 561.521 130.854 561.562 133.438C561.562 135.521 560.708 136.917 559 137.625C558.417 137.833 557.812 137.938 557.188 137.938ZM564.25 156.062C564.25 148.479 566.417 142.062 570.75 136.812C575.083 131.521 580.354 128.875 586.562 128.875C592.854 128.875 598.354 131.333 603.062 136.25C607.771 141.167 610.125 147.354 610.125 154.812C610.125 162.271 608.083 168.479 604 173.438C599.292 179.146 593.875 182 587.75 182C581.208 182.042 575.667 179.604 571.125 174.688C566.583 169.729 564.292 163.521 564.25 156.062ZM585.625 133.562C581.208 133.562 577.812 135.562 575.438 139.562C573.062 143.562 571.875 148.542 571.875 154.5C571.875 160.417 573.375 165.708 576.375 170.375C579.417 175 583.417 177.333 588.375 177.375C593 177.375 596.458 175.354 598.75 171.312C601.083 167.229 602.25 162.438 602.25 156.938C602.25 151.062 600.833 145.708 598 140.875C595.167 136.042 591.042 133.604 585.625 133.562ZM647.5 132.125L647.188 141.812H643.938C643.688 137.521 642.396 134.667 640.062 133.25C638.646 132.417 636.875 132 634.75 132C632.458 132 630.708 132.729 629.5 134.188C628.333 135.604 627.75 137.438 627.75 139.688C627.792 142.312 629.312 144.875 632.312 147.375L640.562 154.562C643.979 157.604 646.188 160.146 647.188 162.188C648.229 164.188 648.75 166.188 648.75 168.188C648.75 173.021 646.75 176.729 642.75 179.312C639.875 181.146 636.25 182.042 631.875 182C627.542 182 623.25 180.896 619 178.688L618.25 168.812H621.312C622.146 172.396 623.25 174.896 624.625 176.312C626 177.688 628.333 178.375 631.625 178.375C634.833 178.375 637.312 177.458 639.062 175.625C640.812 173.792 641.667 171.875 641.625 169.875C641.625 167.083 639.75 164.042 636 160.75L627.75 153.688C622.75 149.438 620.229 145.375 620.188 141.5C620.188 136.917 621.729 133.625 624.812 131.625C627.938 129.583 631.521 128.562 635.562 128.562C639.771 128.562 643.75 129.75 647.5 132.125ZM704.25 174.688C704.167 174.896 703.854 175.396 703.312 176.188C702.812 176.979 702.146 177.812 701.312 178.688C700.521 179.562 699.604 180.333 698.562 181C697.521 181.708 696.438 182.062 695.312 182.062C693.688 182.062 692.375 181.688 691.375 180.938C690.375 180.188 689.583 179.25 689 178.125C688.417 177 688 175.812 687.75 174.562C687.5 173.271 687.333 172.125 687.25 171.125C686.958 171.375 686.417 172.083 685.625 173.25C684.833 174.417 683.771 175.667 682.438 177C681.104 178.292 679.458 179.458 677.5 180.5C675.583 181.542 673.354 182.062 670.812 182.062C669.562 182.062 668.25 181.896 666.875 181.562C665.542 181.229 664.333 180.667 663.25 179.875C662.167 179.042 661.271 177.938 660.562 176.562C659.854 175.146 659.5 173.396 659.5 171.312C659.5 168.354 660.479 165.896 662.438 163.938C664.396 161.979 666.833 160.438 669.75 159.312C672.667 158.188 675.333 157.375 677.75 156.875C680.208 156.333 683.125 155.729 686.5 155.062V144.625C686.5 143.708 686.458 142.562 686.375 141.188C686.333 139.771 686.083 138.417 685.625 137.125C685.208 135.792 684.5 134.667 683.5 133.75C682.542 132.792 681.146 132.312 679.312 132.312C677.062 132.312 675.208 132.75 673.75 133.625C672.333 134.5 671.292 135.292 670.625 136C669.958 136.708 669.042 137.75 667.875 139.125C666.458 139.292 665.333 139.271 664.5 139.062C663.708 138.812 663.042 138.458 662.5 138C662 137.5 661.75 136.833 661.75 136C661.75 134.792 662.667 133.646 664.5 132.562C666.333 131.479 668.708 130.521 671.625 129.688C674.583 128.812 677.375 128.375 680 128.375C682.375 128.375 684.375 128.729 686 129.438C687.625 130.104 688.958 131.042 690 132.25C691.042 133.417 691.833 134.792 692.375 136.375C692.917 137.917 693.292 139.562 693.5 141.312C693.75 143.062 693.875 144.854 693.875 146.688C693.917 148.521 693.938 150.292 693.938 152C693.938 155.167 693.896 158.25 693.812 161.25C693.729 164.25 693.75 166.938 693.875 169.312C694 171.646 694.312 173.542 694.812 175C695.354 176.417 696.229 177.125 697.438 177.125C698.979 177.125 700.542 175.708 702.125 172.875L704.25 174.688ZM686.5 159.188C683.125 159.688 680.229 160.25 677.812 160.875C675.438 161.5 673.542 162.292 672.125 163.25C670.75 164.208 669.688 165.292 668.938 166.5C668.229 167.667 667.875 169.104 667.875 170.812C667.875 174.979 669.708 177.062 673.375 177.062C674.708 177.062 676.083 176.583 677.5 175.625C678.917 174.667 680.229 173.521 681.438 172.188C682.646 170.812 683.708 169.396 684.625 167.938C685.542 166.479 686.167 165.271 686.5 164.312V159.188Z" fill="#AAAAAA" fill-opacity="0.666667"/>
<path d="M290.76 263.348C290.76 262.516 291.352 262.094 292.535 262.082H304.031C305.613 262.082 306.967 262.51 308.092 263.365C309.217 264.221 309.773 265.533 309.762 267.303C309.738 271.088 307.752 272.98 303.803 272.98C302.127 272.934 301.266 272.512 301.219 271.715C301.254 270.824 301.752 270.373 302.713 270.361C303.217 270.361 303.609 270.561 303.891 270.959C304.172 271.357 304.354 271.592 304.436 271.662C304.611 271.791 304.822 271.855 305.068 271.855C306.498 271.855 307.213 270.432 307.213 267.584C307.213 266.025 306.674 264.824 305.596 263.98C304.916 263.453 304.184 263.189 303.398 263.189H300.023V280.346C300.023 281.107 300.088 281.564 300.217 281.717C300.346 281.857 300.598 281.963 300.973 282.033L302.168 282.279V283H295.33V282.314L296.35 282.104C296.971 281.975 297.34 281.734 297.457 281.383C297.586 281.031 297.65 280.357 297.65 279.361V266.213C297.58 264.607 297.211 263.623 296.543 263.26C296.309 263.143 296.027 263.084 295.699 263.084C295.383 263.084 294.938 263.312 294.363 263.77C293.59 264.391 292.91 264.707 292.324 264.719C291.75 264.719 291.346 264.566 291.111 264.262C290.877 263.945 290.76 263.641 290.76 263.348ZM319.887 271.17L317.971 270.941C317.01 270.953 316.225 271.439 315.615 272.4C315.404 272.752 315.299 273.285 315.299 274V280.258C315.299 281.125 315.68 281.705 316.441 281.998C316.453 282.01 316.664 282.074 317.074 282.191C317.484 282.297 317.707 282.355 317.742 282.367V283H311.08V282.367C311.115 282.344 311.232 282.309 311.432 282.262C312.275 282.062 312.814 281.752 313.049 281.33C313.166 281.096 313.23 280.838 313.242 280.557V271.908C313.242 271.346 312.943 271.006 312.346 270.889C312.17 270.854 311.789 270.824 311.203 270.801L311.115 270.186L315.439 268.533L315.475 271.311L316.09 270.66C317.414 269.43 318.709 268.814 319.975 268.814C320.725 268.814 321.105 269.178 321.117 269.904C321.117 270.49 320.877 270.883 320.396 271.082C320.232 271.141 320.062 271.17 319.887 271.17ZM321.873 276.268C321.873 274.135 322.482 272.33 323.701 270.854C324.92 269.365 326.402 268.621 328.148 268.621C329.918 268.621 331.465 269.312 332.789 270.695C334.113 272.078 334.775 273.818 334.775 275.916C334.775 278.014 334.201 279.76 333.053 281.154C331.729 282.76 330.205 283.562 328.482 283.562C326.643 283.574 325.084 282.889 323.807 281.506C322.529 280.111 321.885 278.365 321.873 276.268ZM327.885 269.939C326.643 269.939 325.688 270.502 325.02 271.627C324.352 272.752 324.018 274.152 324.018 275.828C324.018 277.492 324.439 278.98 325.283 280.293C326.139 281.594 327.264 282.25 328.658 282.262C329.959 282.262 330.932 281.693 331.576 280.557C332.232 279.408 332.561 278.061 332.561 276.514C332.561 274.861 332.162 273.355 331.365 271.996C330.568 270.637 329.408 269.951 327.885 269.939ZM341.086 258.76V279.01C341.086 280.064 341.121 280.715 341.191 280.961C341.32 281.43 341.666 281.781 342.229 282.016C342.533 282.133 342.926 282.244 343.406 282.35V283H336.779V282.35C336.85 282.326 337.102 282.273 337.535 282.191C338.508 281.992 338.994 281.289 338.994 280.082V262.346C338.994 261.631 338.947 261.186 338.854 261.01C338.654 260.635 338.021 260.447 336.955 260.447L336.867 259.885L341.086 258.76ZM345.252 276.268C345.252 274.135 345.861 272.33 347.08 270.854C348.299 269.365 349.781 268.621 351.527 268.621C353.297 268.621 354.844 269.312 356.168 270.695C357.492 272.078 358.154 273.818 358.154 275.916C358.154 278.014 357.58 279.76 356.432 281.154C355.107 282.76 353.584 283.562 351.861 283.562C350.021 283.574 348.463 282.889 347.186 281.506C345.908 280.111 345.264 278.365 345.252 276.268ZM351.264 269.939C350.021 269.939 349.066 270.502 348.398 271.627C347.73 272.752 347.396 274.152 347.396 275.828C347.396 277.492 347.818 278.98 348.662 280.293C349.518 281.594 350.643 282.25 352.037 282.262C353.338 282.262 354.311 281.693 354.955 280.557C355.611 279.408 355.939 278.061 355.939 276.514C355.939 274.861 355.541 273.355 354.744 271.996C353.947 270.637 352.787 269.951 351.264 269.939ZM369.176 270.115C367.5 270.115 366.029 270.561 364.764 271.451V279.326C364.764 280.404 364.84 281.107 364.992 281.436C365.145 281.752 365.502 281.969 366.064 282.086L367.102 282.279V283H360.439V282.262L361.652 281.998C362.086 281.904 362.355 281.77 362.461 281.594C362.555 281.395 362.602 280.967 362.602 280.311V272.4C362.602 271.557 362.525 271.023 362.373 270.801C362.092 270.484 361.477 270.32 360.527 270.309L360.439 269.711L364.764 268.621V270.168C366.756 269.078 368.461 268.533 369.879 268.533C371.66 268.533 372.861 269.33 373.482 270.924C373.787 271.697 373.939 272.641 373.939 273.754V279.361C373.939 280.439 374.016 281.143 374.168 281.471C374.332 281.787 374.684 281.998 375.223 282.104L376.26 282.314V283H369.615V282.279L370.811 282.033C371.256 281.939 371.525 281.799 371.619 281.611C371.713 281.412 371.76 280.984 371.76 280.328V274.316C371.736 271.539 370.875 270.139 369.176 270.115ZM392.941 270.133H390.041C390.146 270.484 390.229 271.105 390.287 271.996C390.357 272.887 390.393 273.432 390.393 273.631C390.393 275.939 389.385 277.533 387.369 278.412C386.162 278.939 384.973 279.139 383.801 279.01C382.875 279.748 382.318 280.275 382.131 280.592C381.955 280.908 381.867 281.236 381.867 281.576C381.867 282.35 382.77 282.795 384.574 282.912C385.02 282.936 386.045 282.947 387.65 282.947C389.268 282.947 390.557 283.352 391.518 284.16C392.479 284.969 392.959 285.994 392.959 287.236C392.959 289.135 392.203 290.857 390.691 292.404C389.18 293.951 387.053 294.725 384.311 294.725C383.174 294.725 382.066 294.408 380.988 293.775C379.488 292.861 378.732 291.666 378.721 290.189C378.721 288.268 379.752 286.568 381.814 285.092L382.57 284.582C381.27 284.184 380.396 283.797 379.951 283.422C379.482 283.012 379.248 282.572 379.248 282.104C379.26 281.412 379.77 280.656 380.777 279.836C381.223 279.484 381.744 279.098 382.342 278.676C381.826 278.371 381.223 277.82 380.531 277.023C379.84 276.227 379.494 275.277 379.494 274.176C379.494 272.195 380.045 270.76 381.146 269.869C382.26 268.979 383.508 268.533 384.891 268.533C386.062 268.557 387.1 268.633 388.002 268.762C388.904 268.891 389.543 268.955 389.918 268.955H392.941V270.133ZM382.781 292.809C383.414 293.137 384.047 293.307 384.68 293.318C386.625 293.318 388.119 292.791 389.162 291.736C390.205 290.693 390.744 289.598 390.779 288.449C390.756 286.094 389.391 284.91 386.684 284.898C385.676 284.898 385.008 284.916 384.68 284.951C384.363 284.986 383.918 285.092 383.344 285.268C381.773 286.838 380.988 288.279 380.988 289.592C380.988 291.092 381.586 292.164 382.781 292.809ZM384.908 269.588C382.74 269.611 381.65 271.123 381.639 274.123C381.639 275.178 381.902 276.08 382.43 276.83C382.957 277.568 383.725 277.943 384.732 277.955C386.385 277.955 387.451 277.076 387.932 275.318C388.084 274.732 388.166 274.105 388.178 273.438C388.178 271.984 387.768 270.918 386.947 270.238C386.396 269.805 385.717 269.588 384.908 269.588ZM393.768 269.57V268.867H397.793V276.215C397.793 276.379 397.775 276.941 397.74 277.902C397.646 280.633 398.602 282.01 400.605 282.033C401.719 282.033 402.686 281.588 403.506 280.697C404.326 279.807 404.736 278.799 404.736 277.674V273.402C404.736 271.844 404.666 270.854 404.525 270.432C404.338 269.869 403.67 269.588 402.521 269.588V268.867H406.916V279.186C406.916 280.463 407.18 281.225 407.707 281.471C407.953 281.576 408.422 281.611 409.113 281.576L409.201 282.191L405.369 283.51L404.736 281.189L404.156 281.752C402.785 282.936 401.344 283.533 399.832 283.545C397.957 283.545 396.721 282.83 396.123 281.4C395.771 280.557 395.596 279.408 395.596 277.955V272.453C395.596 271.012 395.297 270.098 394.699 269.711C394.43 269.547 394.119 269.5 393.768 269.57ZM417.762 268.48C420.012 268.48 421.424 269.359 421.998 271.117C422.256 271.914 422.326 272.693 422.209 273.455H413.789C413.637 274.299 413.561 275.084 413.561 275.811C413.561 278.283 414.299 279.971 415.775 280.873C416.561 281.354 417.504 281.594 418.605 281.594C419.754 281.594 420.908 281.172 422.068 280.328L422.578 280.855L422.086 281.436C420.75 282.83 419.168 283.533 417.34 283.545C416.25 283.545 415.242 283.217 414.316 282.561C412.453 281.236 411.521 279.232 411.521 276.549C411.521 273.713 412.312 271.562 413.895 270.098C415.09 269.055 416.379 268.516 417.762 268.48ZM413.965 272.312H419.941C419.941 271.387 419.73 270.701 419.309 270.256C418.887 269.799 418.348 269.57 417.691 269.57C416.672 269.57 415.84 269.875 415.195 270.484C414.551 271.082 414.141 271.691 413.965 272.312ZM444.568 281.506C444.545 281.564 444.457 281.705 444.305 281.928C444.164 282.15 443.977 282.385 443.742 282.631C443.52 282.877 443.262 283.094 442.969 283.281C442.676 283.48 442.371 283.58 442.055 283.58C441.598 283.58 441.229 283.475 440.947 283.264C440.666 283.053 440.443 282.789 440.279 282.473C440.115 282.156 439.998 281.822 439.928 281.471C439.857 281.107 439.811 280.785 439.787 280.504C439.705 280.574 439.553 280.773 439.33 281.102C439.107 281.43 438.809 281.781 438.434 282.156C438.059 282.52 437.596 282.848 437.045 283.141C436.506 283.434 435.879 283.58 435.164 283.58C434.812 283.58 434.443 283.533 434.057 283.439C433.682 283.346 433.342 283.188 433.037 282.965C432.732 282.73 432.48 282.42 432.281 282.033C432.082 281.635 431.982 281.143 431.982 280.557C431.982 279.725 432.258 279.033 432.809 278.482C433.359 277.932 434.045 277.498 434.865 277.182C435.686 276.865 436.436 276.637 437.115 276.496C437.807 276.344 438.627 276.174 439.576 275.986V273.051C439.576 272.793 439.564 272.471 439.541 272.084C439.529 271.686 439.459 271.305 439.33 270.941C439.213 270.566 439.014 270.25 438.732 269.992C438.463 269.723 438.07 269.588 437.555 269.588C436.922 269.588 436.4 269.711 435.99 269.957C435.592 270.203 435.299 270.426 435.111 270.625C434.924 270.824 434.666 271.117 434.338 271.504C433.939 271.551 433.623 271.545 433.389 271.486C433.166 271.416 432.979 271.316 432.826 271.188C432.686 271.047 432.615 270.859 432.615 270.625C432.615 270.285 432.873 269.963 433.389 269.658C433.904 269.354 434.572 269.084 435.393 268.85C436.225 268.604 437.01 268.48 437.748 268.48C438.416 268.48 438.979 268.58 439.436 268.779C439.893 268.967 440.268 269.23 440.561 269.57C440.854 269.898 441.076 270.285 441.229 270.73C441.381 271.164 441.486 271.627 441.545 272.119C441.615 272.611 441.65 273.115 441.65 273.631C441.662 274.146 441.668 274.645 441.668 275.125C441.668 276.016 441.656 276.883 441.633 277.727C441.609 278.57 441.615 279.326 441.65 279.994C441.686 280.65 441.773 281.184 441.914 281.594C442.066 281.992 442.312 282.191 442.652 282.191C443.086 282.191 443.525 281.793 443.971 280.996L444.568 281.506ZM439.576 277.146C438.627 277.287 437.812 277.445 437.133 277.621C436.465 277.797 435.932 278.02 435.533 278.289C435.146 278.559 434.848 278.863 434.637 279.203C434.438 279.531 434.338 279.936 434.338 280.416C434.338 281.588 434.854 282.174 435.885 282.174C436.26 282.174 436.646 282.039 437.045 281.77C437.443 281.5 437.812 281.178 438.152 280.803C438.492 280.416 438.791 280.018 439.049 279.607C439.307 279.197 439.482 278.857 439.576 278.588V277.146ZM452.232 263.348C452.232 262.516 452.824 262.094 454.008 262.082H465.504C467.086 262.082 468.439 262.51 469.564 263.365C470.689 264.221 471.246 265.533 471.234 267.303C471.211 271.088 469.225 272.98 465.275 272.98C463.6 272.934 462.738 272.512 462.691 271.715C462.727 270.824 463.225 270.373 464.186 270.361C464.689 270.361 465.082 270.561 465.363 270.959C465.645 271.357 465.826 271.592 465.908 271.662C466.084 271.791 466.295 271.855 466.541 271.855C467.971 271.855 468.686 270.432 468.686 267.584C468.686 266.025 468.146 264.824 467.068 263.98C466.389 263.453 465.656 263.189 464.871 263.189H461.496V280.346C461.496 281.107 461.561 281.564 461.689 281.717C461.818 281.857 462.07 281.963 462.445 282.033L463.641 282.279V283H456.803V282.314L457.822 282.104C458.443 281.975 458.812 281.734 458.93 281.383C459.059 281.031 459.123 280.357 459.123 279.361V266.213C459.053 264.607 458.684 263.623 458.016 263.26C457.781 263.143 457.5 263.084 457.172 263.084C456.855 263.084 456.41 263.312 455.836 263.77C455.062 264.391 454.383 264.707 453.797 264.719C453.223 264.719 452.818 264.566 452.584 264.262C452.35 263.945 452.232 263.641 452.232 263.348ZM485.279 281.506C485.256 281.564 485.168 281.705 485.016 281.928C484.875 282.15 484.688 282.385 484.453 282.631C484.23 282.877 483.973 283.094 483.68 283.281C483.387 283.48 483.082 283.58 482.766 283.58C482.309 283.58 481.939 283.475 481.658 283.264C481.377 283.053 481.154 282.789 480.99 282.473C480.826 282.156 480.709 281.822 480.639 281.471C480.568 281.107 480.521 280.785 480.498 280.504C480.416 280.574 480.264 280.773 480.041 281.102C479.818 281.43 479.52 281.781 479.145 282.156C478.77 282.52 478.307 282.848 477.756 283.141C477.217 283.434 476.59 283.58 475.875 283.58C475.523 283.58 475.154 283.533 474.768 283.439C474.393 283.346 474.053 283.188 473.748 282.965C473.443 282.73 473.191 282.42 472.992 282.033C472.793 281.635 472.693 281.143 472.693 280.557C472.693 279.725 472.969 279.033 473.52 278.482C474.07 277.932 474.756 277.498 475.576 277.182C476.396 276.865 477.146 276.637 477.826 276.496C478.518 276.344 479.338 276.174 480.287 275.986V273.051C480.287 272.793 480.275 272.471 480.252 272.084C480.24 271.686 480.17 271.305 480.041 270.941C479.924 270.566 479.725 270.25 479.443 269.992C479.174 269.723 478.781 269.588 478.266 269.588C477.633 269.588 477.111 269.711 476.701 269.957C476.303 270.203 476.01 270.426 475.822 270.625C475.635 270.824 475.377 271.117 475.049 271.504C474.65 271.551 474.334 271.545 474.1 271.486C473.877 271.416 473.689 271.316 473.537 271.188C473.396 271.047 473.326 270.859 473.326 270.625C473.326 270.285 473.584 269.963 474.1 269.658C474.615 269.354 475.283 269.084 476.104 268.85C476.936 268.604 477.721 268.48 478.459 268.48C479.127 268.48 479.689 268.58 480.146 268.779C480.604 268.967 480.979 269.23 481.271 269.57C481.564 269.898 481.787 270.285 481.939 270.73C482.092 271.164 482.197 271.627 482.256 272.119C482.326 272.611 482.361 273.115 482.361 273.631C482.373 274.146 482.379 274.645 482.379 275.125C482.379 276.016 482.367 276.883 482.344 277.727C482.32 278.57 482.326 279.326 482.361 279.994C482.396 280.65 482.484 281.184 482.625 281.594C482.777 281.992 483.023 282.191 483.363 282.191C483.797 282.191 484.236 281.793 484.682 280.996L485.279 281.506ZM480.287 277.146C479.338 277.287 478.523 277.445 477.844 277.621C477.176 277.797 476.643 278.02 476.244 278.289C475.857 278.559 475.559 278.863 475.348 279.203C475.148 279.531 475.049 279.936 475.049 280.416C475.049 281.588 475.564 282.174 476.596 282.174C476.971 282.174 477.357 282.039 477.756 281.77C478.154 281.5 478.523 281.178 478.863 280.803C479.203 280.416 479.502 280.018 479.76 279.607C480.018 279.197 480.193 278.857 480.287 278.588V277.146ZM486.193 269.57V268.867H490.219V276.215C490.219 276.379 490.201 276.941 490.166 277.902C490.072 280.633 491.027 282.01 493.031 282.033C494.145 282.033 495.111 281.588 495.932 280.697C496.752 279.807 497.162 278.799 497.162 277.674V273.402C497.162 271.844 497.092 270.854 496.951 270.432C496.764 269.869 496.096 269.588 494.947 269.588V268.867H499.342V279.186C499.342 280.463 499.605 281.225 500.133 281.471C500.379 281.576 500.848 281.611 501.539 281.576L501.627 282.191L497.795 283.51L497.162 281.189L496.582 281.752C495.211 282.936 493.77 283.533 492.258 283.545C490.383 283.545 489.146 282.83 488.549 281.4C488.197 280.557 488.021 279.408 488.021 277.955V272.453C488.021 271.012 487.723 270.098 487.125 269.711C486.855 269.547 486.545 269.5 486.193 269.57ZM512.455 269.535L512.367 272.26H511.453C511.383 271.053 511.02 270.25 510.363 269.852C509.965 269.617 509.467 269.5 508.869 269.5C508.225 269.5 507.732 269.705 507.393 270.115C507.064 270.514 506.9 271.029 506.9 271.662C506.912 272.4 507.34 273.121 508.184 273.824L510.504 275.846C511.465 276.701 512.086 277.416 512.367 277.99C512.66 278.553 512.807 279.115 512.807 279.678C512.807 281.037 512.244 282.08 511.119 282.807C510.311 283.322 509.291 283.574 508.061 283.562C506.842 283.562 505.635 283.252 504.439 282.631L504.229 279.854H505.09C505.324 280.861 505.635 281.564 506.021 281.963C506.408 282.35 507.064 282.543 507.99 282.543C508.893 282.543 509.59 282.285 510.082 281.77C510.574 281.254 510.814 280.715 510.803 280.152C510.803 279.367 510.275 278.512 509.221 277.586L506.9 275.6C505.494 274.404 504.785 273.262 504.773 272.172C504.773 270.883 505.207 269.957 506.074 269.395C506.953 268.82 507.961 268.533 509.098 268.533C510.281 268.533 511.4 268.867 512.455 269.535ZM528.416 281.506C528.393 281.564 528.305 281.705 528.152 281.928C528.012 282.15 527.824 282.385 527.59 282.631C527.367 282.877 527.109 283.094 526.816 283.281C526.523 283.48 526.219 283.58 525.902 283.58C525.445 283.58 525.076 283.475 524.795 283.264C524.514 283.053 524.291 282.789 524.127 282.473C523.963 282.156 523.846 281.822 523.775 281.471C523.705 281.107 523.658 280.785 523.635 280.504C523.553 280.574 523.4 280.773 523.178 281.102C522.955 281.43 522.656 281.781 522.281 282.156C521.906 282.52 521.443 282.848 520.893 283.141C520.354 283.434 519.727 283.58 519.012 283.58C518.66 283.58 518.291 283.533 517.904 283.439C517.529 283.346 517.189 283.188 516.885 282.965C516.58 282.73 516.328 282.42 516.129 282.033C515.93 281.635 515.83 281.143 515.83 280.557C515.83 279.725 516.105 279.033 516.656 278.482C517.207 277.932 517.893 277.498 518.713 277.182C519.533 276.865 520.283 276.637 520.963 276.496C521.654 276.344 522.475 276.174 523.424 275.986V273.051C523.424 272.793 523.412 272.471 523.389 272.084C523.377 271.686 523.307 271.305 523.178 270.941C523.061 270.566 522.861 270.25 522.58 269.992C522.311 269.723 521.918 269.588 521.402 269.588C520.77 269.588 520.248 269.711 519.838 269.957C519.439 270.203 519.146 270.426 518.959 270.625C518.771 270.824 518.514 271.117 518.186 271.504C517.787 271.551 517.471 271.545 517.236 271.486C517.014 271.416 516.826 271.316 516.674 271.188C516.533 271.047 516.463 270.859 516.463 270.625C516.463 270.285 516.721 269.963 517.236 269.658C517.752 269.354 518.42 269.084 519.24 268.85C520.072 268.604 520.857 268.48 521.596 268.48C522.264 268.48 522.826 268.58 523.283 268.779C523.74 268.967 524.115 269.23 524.408 269.57C524.701 269.898 524.924 270.285 525.076 270.73C525.229 271.164 525.334 271.627 525.393 272.119C525.463 272.611 525.498 273.115 525.498 273.631C525.51 274.146 525.516 274.645 525.516 275.125C525.516 276.016 525.504 276.883 525.48 277.727C525.457 278.57 525.463 279.326 525.498 279.994C525.533 280.65 525.621 281.184 525.762 281.594C525.914 281.992 526.16 282.191 526.5 282.191C526.934 282.191 527.373 281.793 527.818 280.996L528.416 281.506ZM523.424 277.146C522.475 277.287 521.66 277.445 520.98 277.621C520.312 277.797 519.779 278.02 519.381 278.289C518.994 278.559 518.695 278.863 518.484 279.203C518.285 279.531 518.186 279.936 518.186 280.416C518.186 281.588 518.701 282.174 519.732 282.174C520.107 282.174 520.494 282.039 520.893 281.77C521.291 281.5 521.66 281.178 522 280.803C522.34 280.416 522.639 280.018 522.896 279.607C523.154 279.197 523.33 278.857 523.424 278.588V277.146Z" fill="#AAAAAA" fill-opacity="0.666667"/>
</svg>
